<mxfile host="app.diagrams.net" modified="2024-05-16T04:07:53.157Z" agent="Mozilla/5.0 (Macintosh; Intel Mac OS X 10_15_7) AppleWebKit/537.36 (KHTML, like Gecko) Chrome/124.0.0.0 Safari/537.36" version="24.4.2" etag="jUZaQ4ZuRvrft2UxJ8H9" type="github">
  <diagram name="페이지-1" id="ky_z8whW94MhAsKYVN7u">
    <mxGraphModel>
      <root>
        <mxCell id="0" />
        <mxCell id="1" parent="0" />
      </root>
    </mxGraphModel>
  </diagram>
</mxfile>
